<svg width="135" height="135" viewBox="0 0 135 135" fill="none" xmlns="http://www.w3.org/2000/svg">
<circle cx="67.4299" cy="67.4299" r="67.4299" fill="#BDF3CC"/>
<mask id="mask0_109_75" style="mask-type:alpha" maskUnits="userSpaceOnUse" x="0" y="0" width="135" height="135">
<circle cx="67.4299" cy="67.4299" r="67.4299" fill="#C0E6FB"/>
</mask>
<g mask="url(#mask0_109_75)">
<path d="M113.93 130.021C111.241 132.259 90.529 146.474 60.9736 144.182C59.3835 130.729 53.3189 75.4601 60.2162 66.7921C60.2162 66.7921 76.9502 58.8114 92.365 62.1622C107.78 65.513 113.779 68.7234 114.878 71.5024C115.71 73.6042 114.522 112.741 113.93 130.021Z" fill="#263238"/>
<path d="M91.8534 68.0663C82.9747 75.7561 71.5378 74.1308 71.7886 68.2268C71.8287 67.3038 72.8169 66.1601 72.8169 66.1601L72.4708 65.6284L70.9659 63.356C69.8674 61.6555 68.493 59.5186 67.5349 57.9636C66.7323 56.6393 86.7419 44.3296 86.7419 51.4074C86.7419 61.3797 91.6377 63.2557 91.6377 63.2557C93.4837 63.9981 95.2042 65.1719 91.8534 68.0663Z" fill="white" stroke="#263238" stroke-width="0.50162" stroke-linecap="round" stroke-linejoin="round"/>
<path d="M97.4666 83.2954C97.4666 83.2954 95.6758 89.4353 96.5235 91.1959" stroke="white" stroke-width="0.50162" stroke-linecap="round" stroke-linejoin="round"/>
<path d="M95.3748 65.4679C95.3748 71.392 77.7027 77.1957 72.526 71.2515" stroke="white" stroke-width="0.50162" stroke-linecap="round" stroke-linejoin="round"/>
<path d="M80.8377 58.6308C80.8377 58.6308 79.6539 63.0952 74.1361 66.5815C73.8728 66.1296 73.448 65.7944 72.9473 65.6434C72.7812 65.6164 72.6118 65.6164 72.4457 65.6434L70.9408 63.3711C73.795 61.3144 80.8377 58.6308 80.8377 58.6308Z" fill="#263238"/>
<path d="M83.3158 53.1431C83.3158 53.1431 83.2556 57.5473 82.3126 58.4452C75.315 65.1569 68.4729 65.6886 67.3442 63.9179C59.7447 51.9994 61.5405 48.8693 60.768 46.8277C59.3986 43.2461 57.7182 37.3972 58.4606 33.8558C60.1159 25.9452 75.014 19.8104 82.8594 27.7661C86.6215 31.5734 87.8103 39.8351 87.0178 46.7173" fill="white"/>
<path d="M83.3158 53.1431C83.3158 53.1431 83.2556 57.5473 82.3126 58.4452C75.315 65.1569 68.4729 65.6886 67.3442 63.9179C59.7447 51.9994 61.5405 48.8693 60.768 46.8277C59.3986 43.2461 57.7182 37.3972 58.4606 33.8558C60.1159 25.9452 75.014 19.8104 82.8594 27.7661C86.6215 31.5734 87.8103 39.8351 87.0178 46.7173" stroke="#263238" stroke-width="0.50162" stroke-linecap="round" stroke-linejoin="round"/>
<path d="M61.7261 43.1458C61.7261 43.1458 59.6343 42.2078 59.1829 43.3264" stroke="#263238" stroke-width="0.50162" stroke-linecap="round" stroke-linejoin="round"/>
<path d="M66.7975 43.216C66.7975 43.216 71.1465 41.3951 73.1029 43.6073" stroke="#263238" stroke-width="0.50162" stroke-linecap="round" stroke-linejoin="round"/>
<path d="M71.6281 46.301C71.6983 46.9531 71.3823 47.5199 70.9157 47.5751C70.4492 47.6303 70.0179 47.1337 69.9476 46.4816C69.8774 45.8295 70.1934 45.2576 70.6599 45.2074C71.1264 45.1573 71.5378 45.6489 71.6281 46.301Z" fill="#263238"/>
<path d="M63.1005 46.4966C63.1757 47.1487 62.8547 47.7206 62.3882 47.7707C61.9217 47.8209 61.4903 47.3343 61.42 46.6822C61.3498 46.0301 61.6658 45.4583 62.1323 45.4081C62.5989 45.3579 63.0202 45.8445 63.1005 46.4966Z" fill="#263238"/>
<path d="M63.3112 44.7811C63.9182 45.7592 63.5871 47.4296 62.7845 49.722C61.9819 52.0144 62.6892 52.8421 65.7691 53.0728" fill="white"/>
<path d="M63.3112 44.7811C63.9182 45.7592 63.5871 47.4296 62.7845 49.722C61.9819 52.0144 62.6892 52.8421 65.7691 53.0728" stroke="#263238" stroke-width="0.50162" stroke-linecap="round" stroke-linejoin="round"/>
<path d="M65.7692 57.0407C65.7692 57.0407 69.7821 56.6745 71.6181 55.6662" stroke="#263238" stroke-width="0.50162" stroke-linecap="round" stroke-linejoin="round"/>
<path d="M91.1912 34.2972C91.1912 31.3176 88.2517 25.2028 83.0951 24.5156C80.1305 21.4156 75.9069 20.2769 70.7803 21.4557C58.9321 24.1745 55.3254 35.8723 54.8088 37.8086C54.7586 37.9891 54.7335 38.0895 54.7335 38.0895L57.9038 37.2869L56.5394 39.9505L58.1997 41.049L57.8185 41.4704L59.7447 43.3264L59.1427 39.9354C59.5139 37.7484 62.0321 34.6885 62.0321 34.6885C61.1131 35.8796 60.5403 37.3012 60.3767 38.7967C61.38 36.1933 67.3994 33.7805 67.3994 33.7805C65.4481 35.3657 64.3897 38.4657 64.3897 38.4657C66.2457 36.1783 70.5947 34.6985 73.3787 33.911C74.3167 36.1733 75.8066 38.5359 77.9334 39.8451C79.9399 41.0791 79.8697 43.6273 79.8697 43.6273C82.0285 45.128 83.6189 47.3121 84.3843 49.8274L86.8121 53.1481C86.8121 53.1481 91.1912 47.7757 91.1912 34.2972Z" fill="#263238"/>
<path d="M80.9732 44.4801C80.1606 42.7395 83.1101 38.0242 85.2019 38.6061C86.3757 38.9372 87.9106 41.0791 88.2116 43.3264C88.5126 45.5736 86.9224 49.8474 85.2269 50.7754C84.1485 51.3774 83.2606 49.7371 83.2606 49.7371" fill="white"/>
<path d="M80.9732 44.4801C80.1606 42.7395 83.1101 38.0242 85.2019 38.6061C86.3757 38.9372 87.9106 41.0791 88.2116 43.3264C88.5126 45.5736 86.9224 49.8474 85.2269 50.7754C84.1485 51.3774 83.2606 49.7371 83.2606 49.7371" stroke="#263238" stroke-width="0.50162" stroke-linecap="round" stroke-linejoin="round"/>
<path d="M-47 129.62L9.67802 116.367L127.9 130.021L97.4615 150.839L-47 129.62Z" fill="white"/>
<path d="M-47 129.62L9.67802 116.367L127.9 130.021" fill="white"/>
<path d="M-47 129.62L9.67802 116.367L127.9 130.021" stroke="#263238" stroke-width="0.50162" stroke-linecap="round" stroke-linejoin="round"/>
<path d="M2.04834 132.279L24.9924 122.136L54.0011 123.636L41.0995 134.666L2.04834 132.279Z" fill="white" stroke="#263238" stroke-width="0.50162" stroke-linecap="round" stroke-linejoin="round"/>
<path d="M61.3349 66.2905C53.9761 69.3002 52.391 76.0671 39.8856 102.808C39.8856 102.808 34.3327 103.947 31.3581 110.694C28.3835 117.441 33.3645 122.768 39.098 122.587C39.098 122.587 41.4005 124.594 46.1207 124.388C50.841 124.182 71.7033 92.2594 71.7033 92.2594L61.3349 66.2905Z" fill="#263238"/>
<path d="M42.0776 104.379C45.3683 107.308 47.2594 111.607 46.2561 116.372" stroke="white" stroke-width="0.50162" stroke-linecap="round" stroke-linejoin="round"/>
<path d="M45.2529 105.788C45.2529 105.788 49.296 106.671 49.923 111.848" stroke="white" stroke-width="0.50162" stroke-linecap="round" stroke-linejoin="round"/>
<path d="M57.081 90.6392C55.1708 85.9261 54.5107 80.7993 55.1649 75.7561" stroke="white" stroke-width="0.50162" stroke-linecap="round" stroke-linejoin="round"/>
<path d="M56.5092 83.8171C56.2032 85.9239 58.3803 97.1401 58.3652 108.933" stroke="white" stroke-width="0.50162" stroke-linecap="round" stroke-linejoin="round"/>
<path d="M111.517 68.5077C120.722 73.1326 121.815 87.3636 113.132 104.379C106.997 116.387 98.5299 134.12 93.1726 135.308C87.8153 136.497 82.5884 133.161 82.5884 133.161C82.5884 133.161 78.0738 132.951 76.7094 129.74C72.9774 120.967 82.463 109.881 86.175 112.535C86.175 112.535 98.0935 86.6162 100.265 84.9809" fill="#263238"/>
<path d="M75.8568 124.408C74.6378 118.354 84.1686 111.211 86.1751 112.535C86.1751 112.535 93.253 112.931 94.3114 117.827" stroke="white" stroke-width="0.50162" stroke-linecap="round" stroke-linejoin="round"/>
<path d="M101.785 125.697C105.929 118.389 113.132 104.379 113.132 104.379" stroke="white" stroke-width="0.50162" stroke-linecap="round" stroke-linejoin="round"/>
<path d="M86.175 112.535C86.175 112.535 91.1361 109.565 94.843 112.374" stroke="white" stroke-width="0.50162" stroke-linecap="round" stroke-linejoin="round"/>
<path d="M87.8705 108.928C87.8705 108.928 90.6093 102.909 93.3883 97.3909C96.1673 91.8731 102.528 83.7017 105.171 83.3055" stroke="white" stroke-width="0.50162" stroke-linecap="round" stroke-linejoin="round"/>
<path d="M35.5917 119.748C34.996 119.719 34.4138 119.56 33.8862 119.282C25.3587 114.832 18.7273 107.479 14.7344 102.201C13.182 100.185 11.7531 98.0756 10.4556 95.8861L12.5022 87.1178C12.5022 87.1178 14.4284 92.134 22.1684 97.0649C29.9084 101.996 39.1031 103.621 42.0777 108.602C44.7112 112.941 40.0712 119.964 35.5917 119.748Z" fill="white"/>
<mask id="mask1_109_75" style="mask-type:luminance" maskUnits="userSpaceOnUse" x="10" y="87" width="33" height="33">
<path d="M35.5917 119.748C34.996 119.719 34.4138 119.56 33.8862 119.282C25.3587 114.832 18.7273 107.479 14.7344 102.201C13.182 100.185 11.7531 98.0756 10.4556 95.8861L12.5022 87.1178C12.5022 87.1178 14.4284 92.134 22.1684 97.0649C29.9084 101.996 39.1031 103.621 42.0777 108.602C44.7112 112.941 40.0712 119.964 35.5917 119.748Z" fill="white"/>
</mask>
<g mask="url(#mask1_109_75)">
<path opacity="0.4" d="M35.5917 119.748C35.4966 119.114 35.3283 118.493 35.0901 117.897C33.2993 113.413 22.4643 104.499 22.4643 104.499C19.886 104.419 17.0519 103.345 14.7444 102.201C13.1886 100.185 11.7563 98.0759 10.4556 95.8861L12.5022 87.1178C12.5022 87.1178 14.4284 92.134 22.1684 97.0649C29.9084 101.996 39.1031 103.621 42.0777 108.602C44.7112 112.941 40.0712 119.964 35.5917 119.748Z" fill="#92E3A9"/>
</g>
<path d="M35.5917 119.748C34.996 119.719 34.4138 119.56 33.8862 119.282C25.3587 114.832 18.7273 107.479 14.7344 102.201C13.182 100.185 11.7531 98.0756 10.4556 95.8861L12.5022 87.1178C12.5022 87.1178 14.4284 92.134 22.1684 97.0649C29.9084 101.996 39.1031 103.621 42.0777 108.602C44.7112 112.941 40.0712 119.964 35.5917 119.748Z" stroke="#263238" stroke-width="0.50162" stroke-linecap="round" stroke-linejoin="round"/>
<path d="M16.2794 95.3544C16.2794 95.3544 15.221 100.029 12.4319 98.9811C10.9271 98.4143 8.02772 93.9197 7.48096 91.6524L16.2794 95.3544Z" fill="white" stroke="#263238" stroke-width="0.50162" stroke-linecap="round" stroke-linejoin="round"/>
<path d="M3.98462 66.5664L6.26198 65.3926C6.26198 65.3926 12.6978 65.4478 16.6906 68.6933C20.3174 71.6428 22.1583 76.2627 22.1583 76.2627C22.1583 76.2627 36.2488 68.4826 50.6403 72.947L56.5092 105.658L29.5271 107.423L12.6877 91.4267L3.98462 66.5664Z" fill="white" stroke="#263238" stroke-width="0.50162" stroke-linecap="round" stroke-linejoin="round"/>
<path d="M58.3653 106.967C58.3653 106.967 55.2001 106.872 50.9664 107.012C44.5657 107.213 35.7222 107.935 31.6791 110.288L31.4885 110.222L27.7865 108.928L27.7113 108.818C27.0291 107.815 21.5263 99.9141 13.6659 96.6987L2.55005 65.6384C2.55005 65.6384 14.0873 66.14 20.3927 76.5637L23.5579 77.7074C23.5579 77.7074 42.3937 72.1294 52.9378 74.1359L58.3653 106.967Z" fill="#92E3A9"/>
<mask id="mask2_109_75" style="mask-type:luminance" maskUnits="userSpaceOnUse" x="2" y="65" width="57" height="46">
<path d="M58.3653 106.967C58.3653 106.967 55.2001 106.872 50.9664 107.012C44.5657 107.213 35.7222 107.935 31.6791 110.288L31.4885 110.222L27.7865 108.928L27.7113 108.818C27.0291 107.815 21.5263 99.9141 13.6659 96.6987L2.55005 65.6384C2.55005 65.6384 14.0873 66.14 20.3927 76.5637L23.5579 77.7074C23.5579 77.7074 42.3937 72.1294 52.9378 74.1359L58.3653 106.967Z" fill="white"/>
</mask>
<g mask="url(#mask2_109_75)">
<path opacity="0.3" d="M27.7113 108.823C27.0291 107.82 21.5263 99.9191 13.6659 96.7037L2.55005 65.6434C2.55005 65.6434 14.0873 66.145 20.3927 76.5687L27.7113 108.823Z" fill="black" fill-opacity="0.7"/>
<path opacity="0.3" d="M50.9664 107.012C44.5657 107.213 35.7221 107.935 31.6791 110.288L31.4885 110.222L24.0946 78.831C24.0946 78.831 30.1441 77.4716 32.0051 78.1588C32.0001 78.1689 44.2998 87.2432 50.9664 107.012Z" fill="black" fill-opacity="0.7"/>
</g>
<path d="M58.3653 106.967C58.3653 106.967 55.2001 106.872 50.9664 107.012C44.5657 107.213 35.7222 107.935 31.6791 110.288L31.4885 110.222L27.7865 108.928L27.7113 108.818C27.0291 107.815 21.5263 99.9141 13.6659 96.6987L2.55005 65.6384C2.55005 65.6384 14.0873 66.14 20.3927 76.5637L23.5579 77.7074C23.5579 77.7074 42.3937 72.1294 52.9378 74.1359L58.3653 106.967Z" stroke="#263238" stroke-width="0.50162" stroke-linecap="round" stroke-linejoin="round"/>
<path d="M23.5679 77.7124L30.8263 107.825" stroke="#263238" stroke-width="0.50162" stroke-linecap="round" stroke-linejoin="round"/>
<path d="M27.7865 108.933L20.7338 78.841" stroke="#263238" stroke-width="0.50162" stroke-linecap="round" stroke-linejoin="round"/>
<path d="M9.8687 95.9112C8.2585 95.4647 5.01302 85.7885 6.49781 81.62C6.49781 81.62 8.26351 78.5551 9.00591 78.3444C10.1295 78.0184 14.6642 78.1137 14.4435 78.8762C13.9418 80.6419 10.4606 80.6118 10.4606 80.6118L9.33196 82.6785L9.3771 83.8171C9.3771 83.8171 11.0174 82.6233 11.6193 82.6584C11.9304 82.6584 13.5355 83.461 14.8096 84.1331C15.8982 84.71 16.5653 85.026 16.3145 85.5477C15.5069 87.2833 12.0708 86.0493 12.0708 86.0493L10.7766 88.0006C10.7766 88.0006 12.0257 88.2163 12.5724 88.2765C13.1192 88.3367 17.6589 91.3615 17.5234 91.7377C16.9867 93.2125 12.6828 91.6173 12.6828 91.6173L11.9203 92.2544C11.9203 92.2544 15.0906 93.072 15.4317 93.1924C15.9333 93.378 17.8645 94.8628 17.8344 95.0333C17.6037 96.3375 14.9401 95.3795 14.9401 95.3795L12.6075 95.2841C12.2522 95.5976 11.8248 95.8182 11.3635 95.9262" fill="white"/>
<path d="M9.8687 95.9112C8.2585 95.4647 5.01302 85.7885 6.49781 81.62C6.49781 81.62 8.26351 78.5551 9.00591 78.3444C10.1295 78.0184 14.6642 78.1137 14.4435 78.8762C13.9418 80.6419 10.4606 80.6118 10.4606 80.6118L9.33196 82.6785L9.3771 83.8171C9.3771 83.8171 11.0174 82.6233 11.6193 82.6584C11.9304 82.6584 13.5355 83.461 14.8096 84.1331C15.8982 84.71 16.5653 85.026 16.3145 85.5477C15.5069 87.2833 12.0708 86.0493 12.0708 86.0493L10.7766 88.0006C10.7766 88.0006 12.0257 88.2163 12.5724 88.2765C13.1192 88.3367 17.6589 91.3615 17.5234 91.7377C16.9867 93.2125 12.6828 91.6173 12.6828 91.6173L11.9203 92.2544C11.9203 92.2544 15.0906 93.072 15.4317 93.1924C15.9333 93.378 17.8645 94.8628 17.8344 95.0333C17.6037 96.3375 14.9401 95.3795 14.9401 95.3795L12.6075 95.2841C12.2522 95.5976 11.8248 95.8182 11.3635 95.9262" stroke="#263238" stroke-width="0.50162" stroke-linecap="round" stroke-linejoin="round"/>
<path d="M9.35701 83.8171C9.35701 83.8171 7.85214 85.0812 7.4659 85.4474C7.07965 85.8136 7.17496 86.9773 7.17496 86.9773" stroke="#263238" stroke-width="0.50162" stroke-linecap="round" stroke-linejoin="round"/>
<path d="M8.26855 89.5456C8.26855 90.8197 9.12131 91.5922 9.51257 92.0036C9.90383 92.4149 8.88554 93.5335 10.0142 94.3361" stroke="#263238" stroke-width="0.50162" stroke-linecap="round" stroke-linejoin="round"/>
<path d="M82.5684 129.931C79.3831 130.799 75.9219 125.201 71.6983 119.091C68.9093 115.078 65.7892 110.799 62.2026 108.055C61.9167 107.84 61.6258 107.629 61.3348 107.428L63.4316 96.8943C67.7857 99.1767 70.4844 102.834 75.004 106.591C82.2775 112.645 88.7233 116.362 90.509 119.041C92.2948 121.72 88.026 128.441 82.5684 129.931Z" fill="white"/>
<mask id="mask3_109_75" style="mask-type:luminance" maskUnits="userSpaceOnUse" x="61" y="96" width="30" height="35">
<path d="M82.5684 129.931C79.3831 130.799 75.9219 125.201 71.6983 119.091C68.9093 115.078 65.7892 110.799 62.2026 108.055C61.9167 107.84 61.6258 107.629 61.3348 107.428L63.4316 96.8943C67.7857 99.1767 70.4844 102.834 75.004 106.591C82.2775 112.645 88.7233 116.362 90.509 119.041C92.2948 121.72 88.026 128.441 82.5684 129.931Z" fill="white"/>
</mask>
<g mask="url(#mask3_109_75)">
<path opacity="0.4" d="M71.6983 119.086C68.9093 115.073 65.7892 110.794 62.2026 108.05C62.6753 108.074 63.1479 108.003 63.5921 107.84C63.5921 107.84 69.2604 112.44 71.6983 119.086Z" fill="#92E3A9"/>
</g>
<path d="M82.5684 129.931C79.3831 130.799 75.9219 125.201 71.6983 119.091C68.9093 115.078 65.7892 110.799 62.2026 108.055C61.9167 107.84 61.6258 107.629 61.3348 107.428L63.4316 96.8943C67.7857 99.1767 70.4844 102.834 75.004 106.591C82.2775 112.645 88.7233 116.362 90.509 119.041C92.2948 121.72 88.026 128.441 82.5684 129.931Z" stroke="#263238" stroke-width="0.50162" stroke-linecap="round" stroke-linejoin="round"/>
<path d="M64.6054 107.012C64.3875 107.401 64.0284 107.692 63.6022 107.825C63.4889 107.869 63.3733 107.908 63.256 107.94H63.1607C59.7949 108.818 52.2204 106.992 52.2204 106.992C52.2204 106.992 47.2594 104.634 46.9584 104.078C46.7487 103.636 46.5629 103.184 46.4016 102.723L46.2662 102.327C46.2662 102.327 44.4804 101.324 44.2597 100.541C44.039 99.7586 43.6628 99.5379 44.7613 99.3974C45.8599 99.257 51.784 99.3974 51.784 99.3974L45.3382 96.7689C45.3382 96.7689 41.0694 94.617 40.6731 93.8595C40.2768 93.1021 39.7802 92.6005 41.9623 92.9014C44.1443 93.2024 48.9097 94.5869 48.9097 94.5869L52.6669 95.3845L48.9348 93.7943C48.9348 93.7943 41.5911 92.9065 42.9806 90.6241H47.149C49.5105 90.7284 51.8593 91.027 54.1717 91.517C55.3856 91.8882 63.4115 96.8743 63.4115 96.8743" fill="white"/>
<mask id="mask4_109_75" style="mask-type:luminance" maskUnits="userSpaceOnUse" x="40" y="90" width="25" height="19">
<path d="M64.6054 107.012C64.3875 107.401 64.0284 107.692 63.6022 107.825C63.4889 107.869 63.3733 107.908 63.256 107.94H63.1607C59.7949 108.818 52.2204 106.992 52.2204 106.992C52.2204 106.992 47.2594 104.634 46.9584 104.078C46.7487 103.636 46.5629 103.184 46.4016 102.723L46.2662 102.327C46.2662 102.327 44.4804 101.324 44.2597 100.541C44.039 99.7586 43.6628 99.5379 44.7613 99.3974C45.8599 99.257 51.784 99.3974 51.784 99.3974L45.3382 96.7689C45.3382 96.7689 41.0694 94.617 40.6731 93.8595C40.2768 93.1021 39.7802 92.6005 41.9623 92.9014C44.1443 93.2024 48.9097 94.5869 48.9097 94.5869L52.6669 95.3845L48.9348 93.7943C48.9348 93.7943 41.5911 92.9065 42.9806 90.6241H47.149C49.5105 90.7284 51.8593 91.027 54.1717 91.517C55.3856 91.8882 63.4115 96.8743 63.4115 96.8743" fill="white"/>
</mask>
<g mask="url(#mask4_109_75)">
<path opacity="0.4" d="M63.1507 107.96C59.7849 108.838 52.2104 107.012 52.2104 107.012C52.2104 107.012 47.2494 104.654 46.9484 104.098C46.7387 103.656 46.5528 103.204 46.3916 102.743L52.4813 103.41C52.2682 103.794 52.1565 104.226 52.1565 104.664C52.1565 105.103 52.2682 105.535 52.4813 105.918C53.1584 107.137 60.8734 108.371 63.1507 107.96Z" fill="#92E3A9"/>
</g>
<path d="M64.6054 107.012C64.3875 107.401 64.0284 107.692 63.6022 107.825C63.4889 107.869 63.3733 107.908 63.256 107.94H63.1607C59.7949 108.818 52.2204 106.992 52.2204 106.992C52.2204 106.992 47.2594 104.634 46.9584 104.078C46.7487 103.636 46.5629 103.184 46.4016 102.723L46.2662 102.327C46.2662 102.327 44.4804 101.324 44.2597 100.541C44.039 99.7586 43.6628 99.5379 44.7613 99.3974C45.8599 99.257 51.784 99.3974 51.784 99.3974L45.3382 96.7689C45.3382 96.7689 41.0694 94.617 40.6731 93.8595C40.2768 93.1021 39.7802 92.6005 41.9623 92.9014C44.1443 93.2024 48.9097 94.5869 48.9097 94.5869L52.6669 95.3845L48.9348 93.7943C48.9348 93.7943 41.5911 92.9065 42.9806 90.6241H47.149C49.5105 90.7284 51.8593 91.027 54.1717 91.517C55.3856 91.8882 63.4115 96.8743 63.4115 96.8743" stroke="#263238" stroke-width="0.50162" stroke-linecap="round" stroke-linejoin="round"/>
<path d="M46.2561 102.347L53.5848 103.425" stroke="#263238" stroke-width="0.50162" stroke-linecap="round" stroke-linejoin="round"/>
<path d="M-26.7998 124.789L-8.43049 130.307L25.178 122.637C25.178 122.637 4.65176 116.809 4.46115 116.954C4.27053 117.1 -26.7998 124.789 -26.7998 124.789Z" fill="#92E3A9"/>
<mask id="mask5_109_75" style="mask-type:luminance" maskUnits="userSpaceOnUse" x="-27" y="116" width="53" height="15">
<path d="M-26.7998 124.789L-8.43049 130.307L25.178 122.637C25.178 122.637 4.65176 116.809 4.46115 116.954C4.27053 117.1 -26.7998 124.789 -26.7998 124.789Z" fill="white"/>
</mask>
<g mask="url(#mask5_109_75)">
<path opacity="0.3" d="M-26.7998 124.789L-8.43049 130.307L25.178 122.637C25.178 122.637 4.65176 116.809 4.46115 116.954C4.27053 117.1 -26.7998 124.789 -26.7998 124.789Z" fill="black" fill-opacity="0.7"/>
</g>
<path d="M-26.7998 124.789L-8.43049 130.307L25.178 122.637C25.178 122.637 4.65176 116.809 4.46115 116.954C4.27053 117.1 -26.7998 124.789 -26.7998 124.789Z" stroke="#263238" stroke-width="0.50162" stroke-linecap="round" stroke-linejoin="round"/>
<path d="M-26.534 118.319C-27.8232 118.409 -28.1442 123.054 -26.7998 124.789L2.87598 118.63L5.25366 113.001L-26.534 118.319Z" fill="#92E3A9"/>
<mask id="mask6_109_75" style="mask-type:luminance" maskUnits="userSpaceOnUse" x="-28" y="113" width="34" height="12">
<path d="M-26.534 118.319C-27.8232 118.409 -28.1442 123.054 -26.7998 124.789L2.87598 118.63L5.25366 113.001L-26.534 118.319Z" fill="white"/>
</mask>
<g mask="url(#mask6_109_75)">
<path opacity="0.3" d="M-26.534 118.319C-27.8232 118.409 -28.1442 123.054 -26.7998 124.789L2.87598 118.63L5.25366 113.001L-26.534 118.319Z" fill="black" fill-opacity="0.7"/>
</g>
<path d="M-26.534 118.319C-27.8232 118.409 -28.1442 123.054 -26.7998 124.789L2.87598 118.63L5.25366 113.001L-26.534 118.319Z" stroke="#263238" stroke-width="0.50162" stroke-linecap="round" stroke-linejoin="round"/>
<path d="M23.7384 118.253C23.7384 118.253 23.2969 120.696 23.5829 122.201L-8.46562 129.454L-25.3602 124.478C-25.3602 124.478 -27.1158 121.373 -25.5859 118.961L5.28378 113.719L23.7384 118.253Z" fill="white" stroke="#263238" stroke-width="0.50162" stroke-linecap="round" stroke-linejoin="round"/>
<path d="M-26.5339 118.319L5.25371 113.001L24.9925 118.003L-8.20474 124.619L-26.5339 118.319Z" fill="#92E3A9" stroke="#263238" stroke-width="0.50162" stroke-linecap="round" stroke-linejoin="round"/>
<path d="M-25.4053 121.288L-8.59599 126.294L18.9178 120.756" stroke="#263238" stroke-width="0.50162" stroke-linecap="round" stroke-linejoin="round"/>
<path d="M23.4926 121.268L-6.0929 127.578" stroke="#263238" stroke-width="0.50162" stroke-linecap="round" stroke-linejoin="round"/>
<path d="M21.0748 120.109L23.4274 119.728" stroke="#263238" stroke-width="0.50162" stroke-linecap="round" stroke-linejoin="round"/>
<path d="M43.0708 126.294L75.1494 127.609L72.0243 138.649L32.5619 137.144L43.0708 126.294Z" fill="white"/>
<mask id="mask7_109_75" style="mask-type:luminance" maskUnits="userSpaceOnUse" x="32" y="126" width="44" height="13">
<path d="M43.0708 126.294L75.1494 127.609L72.0243 138.649L32.5619 137.144L43.0708 126.294Z" fill="white"/>
</mask>
<g mask="url(#mask7_109_75)">
<path opacity="0.4" d="M43.0708 126.294L75.1494 127.609L72.0243 138.649L32.5619 137.144L43.0708 126.294Z" fill="#92E3A9"/>
</g>
<path d="M43.0708 126.294L75.1494 127.609L72.0243 138.649L32.5619 137.144L43.0708 126.294Z" stroke="#263238" stroke-width="0.50162" stroke-linecap="round" stroke-linejoin="round"/>
</g>
</svg>
