<svg width="962" height="120" viewBox="0 0 962 120" fill="none" xmlns="http://www.w3.org/2000/svg">
<rect x="1.49844" y="1.49844" width="959.003" height="116.941" rx="16.4829" fill="white"/>
<rect x="1.49844" y="1.49844" width="959.003" height="116.941" rx="16.4829" stroke="#F6F6F9" stroke-width="2.99688"/>
<path d="M68.0541 75.7188C77.2263 75.7188 84.6619 68.2756 84.6619 59.0938C84.6619 49.9121 77.2263 42.4688 68.0541 42.4688C58.8819 42.4688 51.4464 49.9121 51.4464 59.0938C51.4464 68.2756 58.8819 75.7188 68.0541 75.7188Z" stroke="white" stroke-width="4.49533" stroke-linecap="round" stroke-linejoin="round"/>
<path d="M86.4101 77.4688L82.9137 73.9688" stroke="white" stroke-width="4.49533" stroke-linecap="round" stroke-linejoin="round"/>
<path d="M117.37 71.9688V46.2915H136.646V71.9688H133.445V49.1326H120.607V71.9688H117.37ZM160.002 62.2949C160.002 63.9012 159.786 65.3277 159.354 66.5744C158.947 67.7972 158.347 68.8401 157.556 69.7032C156.789 70.5663 155.842 71.2256 154.715 71.6811C153.612 72.1127 152.378 72.3285 151.011 72.3285C149.74 72.3285 148.566 72.1127 147.487 71.6811C146.408 71.2256 145.473 70.5663 144.682 69.7032C143.89 68.8401 143.267 67.7972 142.812 66.5744C142.38 65.3277 142.164 63.9012 142.164 62.2949C142.164 60.1611 142.524 58.363 143.243 56.9005C143.962 55.414 144.993 54.2872 146.336 53.52C147.678 52.7288 149.273 52.3333 151.119 52.3333C152.869 52.3333 154.404 52.7288 155.722 53.52C157.065 54.2872 158.108 55.414 158.851 56.9005C159.618 58.363 160.002 60.1611 160.002 62.2949ZM145.437 62.2949C145.437 63.8053 145.629 65.124 146.012 66.2508C146.42 67.3536 147.043 68.2048 147.882 68.8041C148.721 69.4035 149.788 69.7032 151.083 69.7032C152.378 69.7032 153.444 69.4035 154.284 68.8041C155.123 68.2048 155.734 67.3536 156.118 66.2508C156.525 65.124 156.729 63.8053 156.729 62.2949C156.729 60.7605 156.525 59.4539 156.118 58.375C155.71 57.2961 155.087 56.469 154.248 55.8936C153.433 55.2942 152.366 54.9945 151.047 54.9945C149.081 54.9945 147.655 55.6418 146.767 56.9365C145.88 58.2311 145.437 60.0173 145.437 62.2949ZM168.002 64.4527C168.002 64.6684 167.99 64.9801 167.966 65.3877C167.966 65.7713 167.954 66.1908 167.93 66.6464C167.906 67.0779 167.882 67.4975 167.858 67.9051C167.834 68.2887 167.81 68.6003 167.786 68.8401L178.108 52.6929H181.992V71.9688H179.043V60.6047C179.043 60.2211 179.043 59.7176 179.043 59.0942C179.067 58.4709 179.091 57.8595 179.115 57.2601C179.139 56.6368 179.163 56.1693 179.187 55.8576L168.937 71.9688H165.017V52.6929H168.002V64.4527ZM195.858 72.3285C194.156 72.3285 192.633 71.9808 191.291 71.2856C189.972 70.5903 188.929 69.5114 188.162 68.0489C187.419 66.5864 187.047 64.7164 187.047 62.4387C187.047 60.0652 187.443 58.1352 188.234 56.6488C189.025 55.1623 190.092 54.0714 191.435 53.3762C192.801 52.6809 194.348 52.3333 196.074 52.3333C197.057 52.3333 198.004 52.4411 198.915 52.6569C199.826 52.8487 200.569 53.0885 201.145 53.3762L200.174 56.0014C199.598 55.7857 198.927 55.5819 198.16 55.3901C197.392 55.1983 196.673 55.1024 196.002 55.1024C194.707 55.1024 193.64 55.3781 192.801 55.9295C191.962 56.4809 191.339 57.2961 190.931 58.375C190.524 59.4539 190.32 60.7965 190.32 62.4028C190.32 63.9372 190.524 65.2438 190.931 66.3227C191.339 67.4016 191.95 68.2167 192.765 68.7682C193.58 69.3196 194.599 69.5953 195.822 69.5953C196.877 69.5953 197.8 69.4874 198.591 69.2716C199.406 69.0559 200.15 68.7921 200.821 68.4805V71.2856C200.174 71.6212 199.454 71.8729 198.663 72.0408C197.896 72.2326 196.961 72.3285 195.858 72.3285ZM216.805 52.6929H220.258L212.022 61.9712L220.941 71.9688H217.273L208.57 62.187V71.9688H205.405V52.6929H208.57V62.0432L216.805 52.6929Z" fill="white"/>
</svg>
