<svg width="71" height="71" viewBox="0 0 71 71" fill="none" xmlns="http://www.w3.org/2000/svg">
<path d="M35.5 6.65625C29.7953 6.65625 24.2186 8.34791 19.4753 11.5173C14.732 14.6867 11.035 19.1915 8.85186 24.462C6.66875 29.7325 6.09755 35.532 7.21049 41.1271C8.32343 46.7223 11.0705 51.8617 15.1044 55.8956C19.1383 59.9295 24.2777 62.6766 29.8729 63.7895C35.468 64.9025 41.2675 64.3313 46.538 62.1481C51.8085 59.965 56.3133 56.2681 59.4827 51.5247C62.6521 46.7814 64.3438 41.2048 64.3438 35.5C64.3357 27.8526 61.2942 20.5208 55.8867 15.1133C50.4792 9.70581 43.1474 6.66433 35.5 6.65625ZM20.5456 54.7754C22.1507 52.2651 24.3619 50.1993 26.9754 48.7683C29.5888 47.3373 32.5204 46.5872 35.5 46.5872C38.4796 46.5872 41.4112 47.3373 44.0247 48.7683C46.6381 50.1993 48.8493 52.2651 50.4544 54.7754C46.1787 58.1007 40.9166 59.9061 35.5 59.9061C30.0834 59.9061 24.8213 58.1007 20.5456 54.7754ZM26.625 33.2812C26.625 31.5259 27.1455 29.8101 28.1207 28.3506C29.0959 26.8911 30.482 25.7535 32.1037 25.0818C33.7254 24.4101 35.5099 24.2343 37.2314 24.5768C38.953 24.9192 40.5344 25.7645 41.7756 27.0057C43.0168 28.2469 43.862 29.8282 44.2045 31.5498C44.5469 33.2714 44.3712 35.0559 43.6994 36.6776C43.0277 38.2993 41.8902 39.6853 40.4307 40.6605C38.9712 41.6357 37.2553 42.1562 35.5 42.1562C33.1462 42.1562 30.8888 41.2212 29.2244 39.5568C27.5601 37.8924 26.625 35.635 26.625 33.2812ZM53.7381 51.6996C51.2636 48.1138 47.7841 45.3397 43.7371 43.726C45.911 42.0138 47.4973 39.6668 48.2754 37.0112C49.0535 34.3557 48.9847 31.5237 48.0787 28.9091C47.1727 26.2944 45.4744 24.0271 43.22 22.4224C40.9656 20.8177 38.2672 19.9554 35.5 19.9554C32.7328 19.9554 30.0344 20.8177 27.78 22.4224C25.5257 24.0271 23.8274 26.2944 22.9213 28.9091C22.0153 31.5237 21.9465 34.3557 22.7246 37.0112C23.5028 39.6668 25.089 42.0138 27.2629 43.726C23.216 45.3397 19.7364 48.1138 17.2619 51.6996C14.135 48.1834 12.0913 43.8382 11.3768 39.1873C10.6623 34.5364 11.3074 29.7781 13.2346 25.4854C15.1618 21.1927 18.2888 17.5486 22.2391 14.9919C26.1894 12.4352 30.7946 11.075 35.5 11.075C40.2055 11.075 44.8106 12.4352 48.7609 14.9919C52.7112 17.5486 55.8382 21.1927 57.7654 25.4854C59.6926 29.7781 60.3378 34.5364 59.6232 39.1873C58.9087 43.8382 56.865 48.1834 53.7381 51.6996Z" fill="#5669FF"/>
</svg>
