<svg width="71" height="71" viewBox="0 0 71 71" fill="none" xmlns="http://www.w3.org/2000/svg">
<path d="M63.6948 60.5553L49.8082 46.6714C53.8331 41.8393 55.8401 35.6414 55.4117 29.3672C54.9834 23.093 52.1526 17.2254 47.5083 12.9852C42.864 8.74491 36.7637 6.4584 30.4765 6.60129C24.1893 6.74417 18.1992 9.30546 13.7523 13.7523C9.30546 18.1992 6.74417 24.1893 6.60129 30.4765C6.4584 36.7637 8.74491 42.864 12.9852 47.5083C17.2254 52.1526 23.093 54.9834 29.3672 55.4117C35.6414 55.8401 41.8393 53.8331 46.6714 49.8082L60.5553 63.6948C60.7614 63.9009 61.0061 64.0645 61.2755 64.176C61.5448 64.2876 61.8335 64.345 62.125 64.345C62.4166 64.345 62.7052 64.2876 62.9746 64.176C63.2439 64.0645 63.4886 63.9009 63.6948 63.6948C63.9009 63.4886 64.0645 63.2439 64.176 62.9746C64.2876 62.7052 64.345 62.4166 64.345 62.125C64.345 61.8335 64.2876 61.5448 64.176 61.2755C64.0645 61.0061 63.9009 60.7614 63.6948 60.5553ZM11.0938 31.0625C11.0938 27.1131 12.2649 23.2523 14.4591 19.9685C16.6533 16.6846 19.772 14.1252 23.4208 12.6138C27.0696 11.1024 31.0847 10.707 34.9582 11.4775C38.8318 12.248 42.3899 14.1498 45.1826 16.9425C47.9752 19.7352 49.8771 23.2933 50.6476 27.1668C51.4181 31.0404 51.0226 35.0554 49.5112 38.7042C47.9999 42.353 45.4404 45.4717 42.1566 47.6659C38.8727 49.8601 35.012 51.0313 31.0625 51.0313C25.7683 51.0254 20.6926 48.9197 16.949 45.1761C13.2054 41.4325 11.0996 36.3568 11.0938 31.0625Z" fill="#5669FF"/>
</svg>
