<svg width="71" height="71" viewBox="0 0 71 71" fill="none" xmlns="http://www.w3.org/2000/svg">
<path d="M38.1043 6.67291C37.4914 6.61946 36.8741 6.69405 36.2915 6.89194C35.7089 7.08983 35.1739 7.4067 34.7204 7.82243C34.2668 8.23816 33.9047 8.74365 33.6569 9.30682C33.4092 9.86999 33.2813 10.4785 33.2813 11.0938V22.3733C33.2736 23.42 33.6394 24.435 34.313 25.2362C34.9866 26.0373 35.9237 26.5721 36.9561 26.7443C38.6056 27.021 40.1434 27.7583 41.3921 28.871C42.6409 29.9838 43.5497 31.4268 44.014 33.0336C44.4782 34.6405 44.4789 36.3459 44.016 37.9531C43.5531 39.5604 42.6455 41.0041 41.3977 42.1179C40.1499 43.2317 38.6127 43.9703 36.9634 44.2484C35.3141 44.5265 33.6198 44.3329 32.0757 43.6899C30.5317 43.0469 29.2008 41.9806 28.2364 40.6141C27.272 39.2475 26.7134 37.6362 26.6251 35.966C26.5113 33.6862 26.9773 31.8058 28.0118 30.347C28.6198 29.4989 28.9064 28.4622 28.8206 27.4222C28.7347 26.3822 28.2819 25.4067 27.5431 24.6697L19.8828 16.8292C19.4462 16.3926 18.9232 16.0519 18.3474 15.8289C17.7715 15.6059 17.1555 15.5055 16.5386 15.5343C15.9218 15.563 15.3177 15.7201 14.7651 15.9956C14.2124 16.2711 13.7234 16.659 13.3292 17.1343C8.70581 22.6756 6.33696 29.7538 6.69358 36.9617C7.0502 44.1697 10.1062 50.9795 15.254 56.0373C20.6366 61.3776 27.9177 64.3649 35.5001 64.3438H35.9133C43.4141 64.2161 50.572 61.1794 55.8764 55.8744C61.1809 50.5695 64.2169 43.4113 64.3438 35.9105C64.5518 20.8507 53.0254 8.0097 38.1043 6.67291ZM16.7294 19.9521L24.3869 27.7704V27.7871C23.2502 29.4182 22.5365 31.3061 22.3096 33.2813H11.1937C11.638 28.378 13.5694 23.7275 16.7294 19.9521ZM11.1964 37.7188H22.3734C22.8335 40.4449 24.131 42.9602 26.0857 44.9154C28.0404 46.8705 30.5553 48.1686 33.2813 48.6295V59.8064C27.5987 59.2873 22.2776 56.7934 18.2428 52.7581C14.2081 48.7229 11.7149 43.4015 11.1964 37.7188ZM52.7342 52.7342C48.7153 56.781 43.3988 59.2822 37.7188 59.7981V48.6295C40.29 48.2015 42.6767 47.0212 44.5775 45.2376C46.3947 43.5445 47.702 41.377 48.3517 38.9798C49.0014 36.5827 48.9676 34.0516 48.2541 31.6727C47.5405 29.2938 46.1758 27.1619 44.314 25.5181C42.4523 23.8742 40.1678 22.784 37.7188 22.3706V11.0938C50.3435 12.2253 60.0921 23.0972 59.9063 35.8467C59.8191 42.1978 57.244 48.2613 52.7342 52.7342Z" fill="#888A9E"/>
</svg>
