<svg width="71" height="71" viewBox="0 0 71 71" fill="none" xmlns="http://www.w3.org/2000/svg">
<path d="M18.1435 62.125C14.6586 62.125 11.8334 59.2258 11.8334 55.6462V29.607C11.8334 27.6397 12.7061 25.7759 14.2 24.5482L31.5566 10.295C32.6655 9.37664 34.0602 8.87415 35.5 8.87415C36.9399 8.87415 38.3345 9.37664 39.4435 10.295L56.7971 24.5482C58.294 25.7759 59.1667 27.6397 59.1667 29.607V55.6462C59.1667 59.2258 56.3415 62.125 52.8566 62.125H18.1435Z" stroke="#888A9E" stroke-width="4.4375" stroke-linecap="round" stroke-linejoin="round"/>
<path d="M28.1041 62.125V45.8542C28.1041 44.285 28.7275 42.78 29.8371 41.6705C30.9467 40.5609 32.4516 39.9375 34.0208 39.9375H36.9791C38.5483 39.9375 40.0533 40.5609 41.1628 41.6705C42.2724 42.78 42.8958 44.285 42.8958 45.8542V62.125" stroke="#888A9E" stroke-width="4.4375" stroke-linecap="round" stroke-linejoin="round"/>
</svg>
