<svg width="458" height="348" viewBox="0 0 458 348" fill="none" xmlns="http://www.w3.org/2000/svg">
<g filter="url(#filter0_d_41_49)">
<path d="M120.558 137.256C120.831 147.492 117.156 155.7 109.532 161.879C101.907 168.059 92.5504 171.296 81.4611 171.593C73.9971 171.792 67.7627 170.091 62.7581 166.49C57.8573 162.78 55.1047 159.599 54.5003 156.947C55.5792 153.397 57.9795 149.385 61.7014 144.911C65.4232 140.436 68.8174 137.678 71.884 136.636C77.4161 140.009 82.6903 147.711 87.7068 159.742C94.6319 159.343 97.9962 155.465 97.7996 148.108C97.6914 144.056 95.9062 139.142 92.444 133.366C89.0856 127.48 85.4187 122.029 81.4433 117.014C77.4651 111.891 73.7377 106.176 70.2613 99.8661C66.8887 93.4472 65.1354 87.732 65.0015 82.7205C64.785 74.6167 67.8662 68.1321 74.2452 63.2666C80.7308 58.3983 88.0788 55.8545 96.2892 55.6351C104.5 55.4158 110.891 57.0056 115.463 60.4047C120.143 63.801 122.542 67.7383 122.662 72.2167C122.781 76.6951 121.198 81.3257 117.911 86.1085C114.624 90.8913 111.312 94.7145 107.974 97.578L102.967 101.873C104.292 103.545 105.896 105.69 107.78 108.307C109.664 110.924 112.238 115.39 115.501 121.706C118.764 128.021 120.45 133.204 120.558 137.256ZM106.841 85.1238C108.296 83.6978 109.585 82.0094 110.707 80.0588C111.825 78.0015 112.356 75.9066 112.299 73.774C112.24 71.5348 110.91 69.703 108.311 68.2786C105.712 66.8541 102.6 66.1904 98.9747 66.2872C95.456 66.3812 92.4931 67.314 90.0863 69.0856C87.7832 70.7477 86.663 72.7517 86.7256 75.0975C86.7855 77.3367 87.6031 79.9825 89.1785 83.0348C90.8577 85.9777 92.4708 88.4422 94.0177 90.4282L96.4981 93.403C97.5501 92.8414 99.1729 91.6776 101.367 89.9118C103.667 88.143 105.491 86.5471 106.841 85.1238ZM179.355 98.0717C179.213 100.743 178.389 103.86 176.884 107.421C172.82 107.103 168.976 106.992 165.351 107.089L162.472 107.166C158.202 131.075 156.146 145.962 156.302 151.827C156.385 154.919 157.066 156.448 158.346 156.414C159.732 156.377 163.268 154.948 168.955 152.129L171.975 157.33C162.696 165.474 154.004 169.654 145.901 169.871C142.169 169.971 139.045 168.88 136.53 166.6C134.121 164.317 132.866 161.256 132.763 157.417C132.658 153.472 132.966 149.036 133.688 144.108C134.517 139.177 135.637 133.172 137.048 126.092C138.457 118.905 139.476 113.116 140.105 108.724C136.169 109.149 133.245 109.547 131.334 109.918C131.087 108.645 130.934 106.941 130.877 104.809C130.818 102.57 130.929 100.753 131.212 99.358L141.288 99.0888C141.988 93.308 142.269 87.8586 142.132 82.7404L141.84 77.7864L141.827 77.3066C150.067 74.2054 157.866 72.5565 165.223 72.3599C165.707 74.4811 165.991 77.1411 166.076 80.34C166.162 83.5389 165.417 89.5876 163.84 98.4862L179.355 98.0717ZM180.514 155.021C180.391 150.436 181.569 142.615 184.048 131.558C186.524 120.395 187.73 113.587 187.664 111.134C187.596 108.575 185.587 105.268 181.637 101.212L181.741 99.1283C188.952 97.4418 198.476 96.4404 210.311 96.1242C210.882 97.4961 211.215 99.9947 211.312 103.62C211.409 107.245 210.123 115.016 207.453 126.931C204.784 138.847 203.488 146.244 203.564 149.123C203.641 152.002 204.746 153.413 206.879 153.356C209.971 153.274 213.513 152.059 217.505 149.711C217.863 147.141 218.799 142.207 220.311 134.911C223.694 117.748 225.287 105.488 225.09 98.1301C228.782 96.5376 235.48 95.6117 245.183 95.3525L248.222 95.2713C248.356 100.283 247.125 110.133 244.53 124.82C241.932 139.402 240.667 147.972 240.735 150.531C240.801 152.983 241.367 154.195 242.433 154.167C243.073 154.15 246.078 152.789 251.447 150.085L254.623 155.122C245.344 163.266 237.132 167.433 229.988 167.624C226.576 167.715 223.618 166.834 221.114 164.98C218.717 163.124 217.317 160.653 216.915 157.57C208.466 164.838 200.723 168.566 193.685 168.754C189.953 168.854 186.828 167.71 184.31 165.323C181.899 162.934 180.633 159.499 180.514 155.021ZM334.922 153.136C326.067 161.162 318.174 165.268 311.243 165.453C304.419 165.635 300.382 162.329 299.134 155.533C296.02 158.817 292.515 161.419 288.618 163.337C284.721 165.255 281.28 166.254 278.295 166.333C273.176 166.47 268.745 164.348 265 159.966C261.255 155.585 259.257 148.702 259.006 139.319C258.63 125.244 261.321 114.128 267.078 105.971C272.833 97.7082 279.442 93.4768 286.906 93.2774C294.477 93.0751 300.867 94.6116 306.076 97.887C308.92 80.5248 310.21 66.8855 309.945 56.9691L308.966 50.2728C316.889 47.2868 324.689 45.6912 332.366 45.4861C333.268 47.276 333.75 49.3439 333.812 51.6897C334.02 59.4736 332.098 75.3706 328.044 99.3808C323.988 123.284 322.074 139.501 322.301 148.032C322.37 150.591 322.99 151.854 324.163 151.823C324.803 151.806 326.802 150.739 330.16 148.622L331.734 147.619L334.922 153.136ZM294.996 102.505C291.264 102.604 288.11 106.37 285.534 113.801C283.065 121.23 281.927 128.57 282.121 135.82C282.312 142.964 282.914 147.537 283.928 149.537C285.048 151.534 286.622 152.506 288.648 152.452C292.166 152.358 295.593 150.826 298.928 147.856C299.134 143.582 301.155 129.336 304.989 105.119C301.312 103.296 297.981 102.425 294.996 102.505ZM361.868 179.466C358.406 181.693 356.702 183.819 356.756 185.845C356.81 187.871 357.957 188.854 360.196 188.794C362.542 188.731 365.125 187.542 367.944 185.226C370.766 183.016 373.071 179.433 374.859 174.477C369.767 175.574 365.436 177.237 361.868 179.466ZM353.746 163.037C344.789 163.276 340.18 158.491 339.918 148.681C339.855 146.335 340.74 139.536 342.574 128.283C344.407 117.03 345.224 107.672 345.025 100.208C344.982 98.6081 344.729 97.121 344.265 95.7462C349.963 93.3532 357.824 92.0228 367.847 91.755C368.42 93.2335 368.755 95.7855 368.852 99.4108C368.949 103.036 367.977 110.585 365.936 122.057C363.895 133.529 362.918 140.917 363.007 144.223C363.095 147.528 364.525 149.144 367.298 149.07C370.603 148.982 374.558 147.222 379.161 143.791C379.526 137.486 381.216 120.848 384.23 93.8781C387.922 92.2856 394.619 91.3597 404.323 91.1005L407.362 91.0193C405.549 99.0706 403.884 110.639 402.367 125.725C400.849 140.811 399.582 151.302 398.566 157.198C396.64 168.987 392.737 178.641 386.855 186.161C381.084 193.784 373.346 197.726 363.643 197.985C359.804 198.088 356.258 197.169 353.005 195.228C349.859 193.285 348.243 190.714 348.158 187.515C348.044 183.25 350.552 179.288 355.683 175.63C360.814 171.971 367.779 169.064 376.578 166.909C377.412 162.191 378.037 157.64 378.453 153.254C369.979 159.562 361.743 162.823 353.746 163.037Z" fill="#1B43A9"/>
</g>
<g filter="url(#filter1_d_41_49)">
<path d="M40.7648 322.894C35.4333 323.036 30.9726 321.821 27.3827 319.25C23.7955 316.785 21.9407 313.26 21.8182 308.675C21.4906 296.412 33.8044 288.027 58.7595 283.519C59.6252 279.974 60.2804 276.542 60.7252 273.223C55.9001 276.339 50.7685 277.97 45.3304 278.116C35.4139 278.381 27.3214 275.022 21.0526 268.04C14.7811 260.952 11.4915 251.65 11.1838 240.134C10.8761 228.618 12.8304 217.896 17.0467 207.966C21.263 198.037 27.4442 189.762 35.5903 183.142C43.843 176.519 52.661 173.082 62.0443 172.832C71.5343 172.578 79.3275 174.717 85.4241 179.249C91.6244 183.672 94.82 189.456 95.0109 196.6C95.1249 200.865 94.4711 204.35 93.0495 207.056C92.1993 207.185 91.0278 207.27 89.535 207.31C81.3246 207.529 75.1045 206.361 70.8748 203.807L70.5732 186.529C67.9543 184.358 64.5656 183.328 60.4071 183.439C53.9027 183.613 48.2787 188.778 43.5349 198.935C38.7883 208.986 36.6059 221.155 36.9877 235.443C37.2412 244.933 38.974 251.876 42.1859 256.272C45.3977 260.668 49.1363 262.809 53.4014 262.695C59.7991 262.524 65.4716 259.171 70.4188 252.636C75.3661 246.102 78.8411 238.38 80.8438 229.47L89.5192 230.678C86.2821 261.283 80.7592 284.212 72.9505 299.466C65.1418 314.72 54.4132 322.529 40.7648 322.894ZM32.2017 307.917C32.2815 310.903 34.8271 312.328 39.8387 312.194C42.3978 312.126 45.3939 310.445 48.8272 307.153C52.2633 303.966 54.8208 299.843 56.4996 294.783C50.3294 295.482 44.7151 297.019 39.6567 299.395C34.6012 301.877 32.1162 304.718 32.2017 307.917ZM145.741 217.972C145.949 217.753 146.498 216.351 147.389 213.767C152.401 213.633 159.158 214.946 167.662 217.707C165.233 226.628 163.348 235.962 162.008 245.708C160.665 255.347 160.049 262.246 160.16 266.404C160.268 270.456 160.749 272.471 161.602 272.448C162.242 272.431 164.56 271.355 168.558 269.221L170.452 268.21L173.48 273.731C172.543 274.61 171.292 275.71 169.727 277.033C168.269 278.352 165.437 280.188 161.231 282.542C157.023 284.788 153.213 285.957 149.801 286.048C143.19 286.225 139.271 283.342 138.046 277.399C131.381 283.553 125.276 286.703 119.732 286.852C114.293 286.997 109.598 284.988 105.646 280.826C101.8 276.66 99.7541 269.992 99.5091 260.822C99.1273 246.534 101.759 235.206 107.404 226.839C113.047 218.366 120.026 214.018 128.343 213.795C134.315 213.636 140.114 215.028 145.741 217.972ZM128.965 273C131.524 272.932 134.376 271.842 137.521 269.73C137.865 254.676 139.974 239.734 143.846 224.905C140.61 223.605 137.872 222.984 135.633 223.044C131.794 223.147 128.59 227.02 126.02 234.665C123.554 242.2 122.442 250.5 122.684 259.563C122.926 268.626 125.02 273.105 128.965 273ZM179.907 283.803L178.787 283.833C178.551 282.986 178.393 281.069 178.313 278.084C178.231 274.992 179.451 266.743 181.974 253.337C184.496 239.932 185.732 232.269 185.681 230.35C185.593 227.044 184.003 223.459 180.912 219.593L179.421 217.713L179.526 215.629C185.241 213.876 194.443 212.83 207.132 212.491C208.485 215.229 209.229 219.104 209.363 224.115C210.485 222.165 212.869 219.54 216.515 216.241C220.162 212.943 223.958 211.241 227.903 211.135C233.661 210.982 236.674 215.916 236.941 225.939C236.425 226.593 235.702 227.466 234.771 228.558C233.943 229.541 232.168 230.975 229.444 232.862C226.826 234.746 224.244 235.935 221.696 236.43C221.59 236.433 220.645 235.018 218.862 232.184C217.079 229.351 215.761 227.946 214.908 227.968C212.268 228.999 209.965 230.661 207.998 232.955C203.683 255.158 201.613 269.512 201.786 276.016C201.849 278.362 201.947 280.013 202.079 280.97C198.387 282.563 190.996 283.507 179.907 283.803ZM310.508 270.07C301.652 278.096 293.759 282.202 286.828 282.387C280.004 282.569 275.967 279.263 274.719 272.467C271.605 275.751 268.1 278.352 264.204 280.27C260.307 282.189 256.866 283.188 253.88 283.267C248.762 283.404 244.33 281.282 240.585 276.9C236.84 272.519 234.842 265.636 234.591 256.253C234.215 242.178 236.906 231.062 242.664 222.905C248.418 214.642 255.028 210.411 262.492 210.211C270.062 210.009 276.452 211.545 281.662 214.821C284.506 197.459 285.795 183.819 285.53 173.903L284.551 167.207C292.474 164.221 300.274 162.625 307.951 162.42C308.853 164.21 309.335 166.278 309.398 168.624C309.606 176.407 307.683 192.304 303.629 216.315C299.573 240.218 297.659 256.435 297.887 264.965C297.955 267.524 298.576 268.788 299.749 268.757C300.388 268.74 302.387 267.673 305.745 265.556L307.319 264.553L310.508 270.07ZM270.581 219.438C266.849 219.538 263.695 223.304 261.119 230.735C258.65 238.164 257.513 245.503 257.706 252.754C257.897 259.898 258.5 264.471 259.513 266.471C260.634 268.468 262.207 269.44 264.233 269.386C267.752 269.292 271.179 267.76 274.514 264.79C274.72 260.516 276.74 246.27 280.574 222.052C276.898 220.23 273.567 219.359 270.581 219.438ZM313.86 252.054C313.504 238.726 317.222 228.116 325.014 220.225C332.91 212.224 341.976 208.087 352.212 207.814C358.503 207.646 363.716 209.054 367.851 212.038C371.985 215.022 374.122 219.126 374.262 224.351C374.399 229.469 373.181 233.823 370.609 237.413C368.144 241 365.071 243.803 361.391 245.822C353.92 249.757 347.052 252.288 340.786 253.415L336.96 253.998C337.974 264.001 342.214 268.903 349.678 268.703C352.237 268.635 354.939 267.923 357.783 266.566C360.628 265.21 362.833 263.87 364.398 262.548L366.746 260.565L370.722 265.58C369.9 266.776 368.235 268.368 365.727 270.355C363.22 272.343 360.863 274.007 358.658 275.346C352.565 278.923 345.84 280.81 338.482 281.007C331.125 281.203 325.244 278.746 320.839 273.635C316.434 268.525 314.108 261.331 313.86 252.054ZM336.591 246.165C342.003 245.06 346.261 242.652 349.363 238.941C352.465 235.23 353.939 230.496 353.785 224.738C353.631 218.98 351.848 216.147 348.436 216.238C344.384 216.346 341.331 219.896 339.277 226.886C337.327 233.768 336.431 240.194 336.591 246.165ZM383.454 278.365L380.415 278.446C380.281 273.434 381.518 263.798 384.124 249.537C386.838 235.272 388.169 227.181 388.117 225.261C388.023 221.742 386.431 218.05 383.34 214.185L381.849 212.304L381.953 210.22C387.669 208.467 396.871 207.421 409.559 207.082C410.994 208.858 411.829 212.143 412.064 216.939C421.149 209.547 428.891 205.765 435.289 205.594C439.127 205.492 442.202 206.743 444.512 209.349C446.929 211.952 448.192 215.28 448.3 219.332C448.406 223.277 447.363 230.187 445.173 240.063C442.983 249.938 441.933 256.582 442.024 259.994C442.112 263.299 442.583 264.941 443.436 264.918C444.076 264.901 446.288 263.828 450.073 261.699L451.966 260.689L454.995 266.21C454.058 267.088 452.807 268.189 451.242 269.511C449.676 270.833 446.738 272.672 442.426 275.028C438.218 277.275 434.408 278.444 430.995 278.535C423.212 278.743 419.201 274.422 418.965 265.572C418.865 261.84 419.854 254.931 421.932 244.845C424.117 234.756 425.171 228.273 425.094 225.394C425.017 222.515 424.072 221.099 422.26 221.148C419.167 221.23 415.418 222.664 411.01 225.45C410.739 227.271 409.801 232.098 408.196 239.93C404.912 256.771 403.362 268.656 403.547 275.587C399.855 277.18 393.157 278.105 383.454 278.365Z" fill="#1B43A9"/>
</g>
<defs>
<filter id="filter0_d_41_49" x="51.7225" y="43.5162" width="358.464" height="166.694" filterUnits="userSpaceOnUse" color-interpolation-filters="sRGB">
<feFlood flood-opacity="0" result="BackgroundImageFix"/>
<feColorMatrix in="SourceAlpha" type="matrix" values="0 0 0 0 0 0 0 0 0 0 0 0 0 0 0 0 0 0 127 0" result="hardAlpha"/>
<feOffset dy="4"/>
<feComposite in2="hardAlpha" operator="out"/>
<feColorMatrix type="matrix" values="0 0 0 0 0 0 0 0 0 0 0 0 0 0 0 0 0 0 0.25 0"/>
<feBlend mode="normal" in2="BackgroundImageFix" result="effect1_dropShadow_41_49"/>
<feBlend mode="normal" in="SourceGraphic" in2="effect1_dropShadow_41_49" result="shape"/>
</filter>
<filter id="filter1_d_41_49" x="9.32054" y="158.568" width="446.892" height="169.056" filterUnits="userSpaceOnUse" color-interpolation-filters="sRGB">
<feFlood flood-opacity="0" result="BackgroundImageFix"/>
<feColorMatrix in="SourceAlpha" type="matrix" values="0 0 0 0 0 0 0 0 0 0 0 0 0 0 0 0 0 0 127 0" result="hardAlpha"/>
<feOffset dy="4"/>
<feComposite in2="hardAlpha" operator="out"/>
<feColorMatrix type="matrix" values="0 0 0 0 0 0 0 0 0 0 0 0 0 0 0 0 0 0 0.25 0"/>
<feBlend mode="normal" in2="BackgroundImageFix" result="effect1_dropShadow_41_49"/>
<feBlend mode="normal" in="SourceGraphic" in2="effect1_dropShadow_41_49" result="shape"/>
</filter>
</defs>
</svg>
